<svg enable-background="new 0 0 64 64" viewBox="0 0 64 64" xmlns="http://www.w3.org/2000/svg"><circle cx="32" cy="32" fill="#e0995e" r="32"/><path d="m52 42.9c0 1.1-.9 2.1-2 2.1h-36c-1.1 0-2-.9-2-2.1v-16.8c0-1.1.9-2.1 2-2.1h36c1.1 0 2 .9 2 2.1z" fill="#231f20" opacity=".2"/><path d="m52 40.9c0 1.1-.9 2.1-2 2.1h-36c-1.1 0-2-.9-2-2.1v-16.8c0-1.1.9-2.1 2-2.1h36c1.1 0 2 .9 2 2.1z" fill="#f5cf87"/><g fill="#231f20" opacity=".2"><path d="m39.9 38h-15.8c-.9 0-1.6.7-1.6 1.5s.7 1.5 1.6 1.5h15.8c.9 0 1.6-.7 1.6-1.5s-.7-1.5-1.6-1.5z"/><circle cx="20" cy="39.5" r="1.5"/><circle cx="16" cy="39.5" r="1.5"/><circle cx="48" cy="39.5" r="1.5"/><circle cx="44" cy="39.5" r="1.5"/><path d="m20 33.8h-4c-.8 0-1.5.7-1.5 1.5s.7 1.5 1.5 1.5h4c.8 0 1.5-.7 1.5-1.5s-.7-1.5-1.5-1.5z"/><path d="m48 33.8h-4c-.8 0-1.5.7-1.5 1.5s.7 1.5 1.5 1.5h4c.8 0 1.5-.7 1.5-1.5s-.7-1.5-1.5-1.5z"/><circle cx="20" cy="31.5" r="1.5"/><circle cx="16" cy="31.5" r="1.5"/><circle cx="48" cy="31.5" r="1.5"/><circle cx="44" cy="31.5" r="1.5"/><circle cx="20" cy="27.5" r="1.5"/><circle cx="16" cy="27.5" r="1.5"/><circle cx="28" cy="35.3" r="1.5"/><circle cx="24" cy="35.3" r="1.5"/><circle cx="28" cy="31.5" r="1.5"/><circle cx="24" cy="31.5" r="1.5"/><circle cx="28" cy="27.5" r="1.5"/><circle cx="24" cy="27.5" r="1.5"/><circle cx="36" cy="35.3" r="1.5"/><circle cx="32" cy="35.3" r="1.5"/><circle cx="36" cy="31.5" r="1.5"/><circle cx="32" cy="31.5" r="1.5"/><circle cx="36" cy="27.5" r="1.5"/><circle cx="40" cy="35.3" r="1.5"/><circle cx="40" cy="31.5" r="1.5"/><circle cx="40" cy="27.5" r="1.5"/><circle cx="32" cy="27.5" r="1.5"/><circle cx="48" cy="27.5" r="1.5"/><circle cx="44" cy="27.5" r="1.5"/></g><g fill="#fff"><path d="m39.9 37h-15.8c-.9 0-1.6.7-1.6 1.5s.7 1.5 1.6 1.5h15.8c.9 0 1.6-.7 1.6-1.5s-.7-1.5-1.6-1.5z"/><circle cx="20" cy="38.5" r="1.5"/><circle cx="16" cy="38.5" r="1.5"/><circle cx="48" cy="38.5" r="1.5"/><circle cx="44" cy="38.5" r="1.5"/><path d="m20 32.8h-4c-.8 0-1.5.7-1.5 1.5s.7 1.5 1.5 1.5h4c.8 0 1.5-.7 1.5-1.5s-.7-1.5-1.5-1.5z"/><path d="m48 32.8h-4c-.8 0-1.5.7-1.5 1.5s.7 1.5 1.5 1.5h4c.8 0 1.5-.7 1.5-1.5s-.7-1.5-1.5-1.5z"/><circle cx="20" cy="30.5" r="1.5"/><circle cx="16" cy="30.5" r="1.5"/><circle cx="48" cy="30.5" r="1.5"/><circle cx="44" cy="30.5" r="1.5"/><circle cx="20" cy="26.5" r="1.5"/><circle cx="16" cy="26.5" r="1.5"/><circle cx="28" cy="34.3" r="1.5"/><circle cx="24" cy="34.3" r="1.5"/><circle cx="28" cy="30.5" r="1.5"/><circle cx="24" cy="30.5" r="1.5"/><circle cx="28" cy="26.5" r="1.5"/><circle cx="24" cy="26.5" r="1.5"/><circle cx="36" cy="34.3" r="1.5"/><circle cx="32" cy="34.3" r="1.5"/><circle cx="36" cy="30.5" r="1.5"/><circle cx="32" cy="30.5" r="1.5"/><circle cx="36" cy="26.5" r="1.5"/><circle cx="40" cy="34.3" r="1.5"/><circle cx="40" cy="30.5" r="1.5"/><circle cx="40" cy="26.5" r="1.5"/><circle cx="32" cy="26.5" r="1.5"/><circle cx="48" cy="26.5" r="1.5"/><circle cx="44" cy="26.5" r="1.5"/></g></svg>